<?xml version="1.0" encoding="utf-8"?>
<!-- Generator: Adobe Illustrator 22.0.1, SVG Export Plug-In . SVG Version: 6.00 Build 0)  -->
<svg version="1.1" id="Capa_1" xmlns="http://www.w3.org/2000/svg" xmlns:xlink="http://www.w3.org/1999/xlink" x="0px" y="0px"
	 viewBox="0 0 455.6 212.6" style="enable-background:new 0 0 455.6 212.6;" xml:space="preserve">
<style type="text/css">
	.st0{fill:#253C98;}
	.st1{fill:#EE2D78;}
	.st2{fill:none;}
	.st3{fill:#F99D2D;}
	.st4{fill:#89C540;}
</style>
<path class="st0" d="M243.2,166c0,1.2-0.3,1.8-1,1.8c-1.8,0-4.1-0.1-6.9-0.4c-3.1-0.3-5.8-0.4-7.9-0.4c-2.2,0-4.8,0.1-7.8,0.4
	c-2.8,0.3-5,0.4-6.8,0.4c-0.7,0-1-0.6-1-1.8c0-1.1,0.3-1.7,1-1.8c3.7-0.5,6.1-1.4,7.2-2.7c1.1-1.3,1.6-4.1,1.6-8.4V129
	c0-3.5-0.4-5.8-1.3-6.9c-0.9-1.1-2.9-1.8-5.9-2.2c-0.7,0-1-0.6-1-1.7c0-1.1,0.3-1.6,1-1.6c4.6-1.2,8.3-2.4,11.2-3.8
	c2.9-1.3,4.7-2.4,5.5-3.3c0.4-0.5,0.9-0.8,1.4-0.8c1.2,0,1.8,0.4,1.8,1c-0.7,9.8-1,17.4-1,22.8v20.6c0,4.3,0.5,7.1,1.6,8.4
	s3.5,2.2,7.3,2.7C242.9,164.3,243.2,164.9,243.2,166z M233.3,87.9c0,2.1-0.8,3.9-2.3,5.4c-1.5,1.5-3.3,2.3-5.5,2.3
	c-2.1,0-4-0.8-5.5-2.3c-1.5-1.5-2.3-3.4-2.3-5.4c0-2.2,0.7-4,2.2-5.5c1.5-1.5,3.3-2.2,5.5-2.2c2.1,0,4,0.7,5.5,2.2
	C232.6,83.9,233.3,85.7,233.3,87.9z"/>
<path class="st0" d="M291.9,169.9c-2.4,0-4.5-0.6-6.3-1.8c-1.8-1.2-3-2.8-3.6-4.8c-4.6,4.8-10.7,7.1-18.2,7.1
	c-3.9,0-7.1-1.2-9.5-3.6c-2.5-2.4-3.7-5.4-3.7-9c0-8.9,10.5-16.1,31.6-21.6l0.4-10.1v-0.3c0-3.1-0.8-5.6-2.3-7.4
	c-1.5-1.8-3.6-2.8-6.1-2.8c-2.6,0-4.7,0.6-6.5,1.9c-1.8,1.2-2.7,2.8-2.7,4.6c0,2.8-0.8,4.9-2.2,6.5c-1.4,1.6-3.3,2.3-5.6,2.3
	c-1.4,0-2.5-0.4-3.4-1.2c-0.9-0.8-1.3-1.9-1.3-3.3c0-3.3,3-6.8,9.1-10.5c6.1-3.7,11.7-5.5,16.9-5.5c4.7,0,8.5,1.4,11.4,4.2
	c2.9,2.8,4.4,6.5,4.4,11.2v0.8l-1,29.4v0.5c0,4.5,1.5,6.8,4.4,6.8c1.4,0,3.1-0.9,5-2.6l0.5-0.1c0.3,0,0.7,0.2,1,0.7
	c0.3,0.5,0.5,0.9,0.5,1.5c0,1.3-1.3,2.8-3.9,4.6C297.8,169,295,169.9,291.9,169.9z M281.9,140.6c-12.6,2.9-18.9,7.6-18.9,14.2
	c0,6.2,2.4,9.2,7.1,9.2c2.3,0,4.5-0.6,6.8-1.7c2.2-1.2,3.7-2.6,4.5-4.3L281.9,140.6z"/>
<path class="st0" d="M426.3,169.9c-2.4,0-4.5-0.6-6.3-1.8c-1.8-1.2-3-2.8-3.6-4.8c-4.6,4.8-10.7,7.1-18.2,7.1
	c-3.9,0-7.1-1.2-9.5-3.6c-2.5-2.4-3.7-5.4-3.7-9c0-8.9,10.5-16.1,31.6-21.6l0.4-10.1v-0.3c0-3.1-0.8-5.6-2.3-7.4
	c-1.5-1.8-3.6-2.8-6.1-2.8c-2.6,0-4.7,0.6-6.5,1.9c-1.8,1.2-2.7,2.8-2.7,4.6c0,2.8-0.8,4.9-2.2,6.5c-1.4,1.6-3.3,2.3-5.6,2.3
	c-1.4,0-2.5-0.4-3.4-1.2c-0.9-0.8-1.3-1.9-1.3-3.3c0-3.3,3-6.8,9.1-10.5c6.1-3.7,11.7-5.5,16.9-5.5c4.7,0,8.5,1.4,11.4,4.2
	c2.9,2.8,4.4,6.5,4.4,11.2v0.8l-1,29.4v0.5c0,4.5,1.5,6.8,4.4,6.8c1.4,0,3.1-0.9,5-2.6l0.5-0.1c0.3,0,0.7,0.2,1,0.7
	c0.3,0.5,0.5,0.9,0.5,1.5c0,1.3-1.3,2.8-3.9,4.6C432.2,169,429.3,169.9,426.3,169.9z M416.3,140.6c-12.6,2.9-18.9,7.6-18.9,14.2
	c0,6.2,2.4,9.2,7.1,9.2c2.3,0,4.5-0.6,6.8-1.7c2.2-1.2,3.7-2.6,4.5-4.3L416.3,140.6z"/>
<path class="st0" d="M377.3,166c0,1.2-0.3,1.8-1,1.8c-1.7,0-3.7-0.1-6.2-0.4c-2.7-0.3-5.1-0.4-7.1-0.4c-2.1,0-4.5,0.1-7.2,0.4
	c-2.5,0.3-4.6,0.4-6.2,0.4c-0.7,0-1-0.6-1-1.8c0-1.1,0.3-1.6,1-1.7c2.9-0.3,4.8-1.2,5.7-2.5c0.9-1.3,1.4-4,1.4-8.2v-21.1
	c0-4.7-0.9-8.2-2.8-10.4c-1.9-2.2-4.7-3.3-8.6-3.3c-2.4,0-4.6,0.5-6.5,1.4c-1.9,0.9-3.9,2.6-6,4.9v28.4c0,4.2,0.5,6.9,1.4,8.2
	c0.9,1.3,2.8,2.1,5.7,2.5c0.7,0.1,1,0.7,1,1.7c0,1.2-0.3,1.8-1,1.8c-1.7,0-3.8-0.1-6.3-0.4c-2.7-0.3-5.1-0.4-7.2-0.4
	c-2,0-4.4,0.1-7.1,0.4c-2.5,0.3-4.6,0.4-6.3,0.4c-0.7,0-1-0.6-1-1.8c0-1.1,0.3-1.6,1-1.7c3.6-0.5,6-1.3,7-2.6c1.1-1.3,1.6-4,1.6-8
	v-23.3c0-3.4-0.4-5.6-1.3-6.6c-0.9-1-2.8-1.7-5.8-2.1c-0.7,0-1-0.6-1-1.7c0-1,0.3-1.5,1-1.5c4.2-1.1,7.6-2.2,10.4-3.6
	c2.8-1.3,4.5-2.4,5.2-3.2c0.4-0.5,0.9-0.8,1.4-0.8c1.2,0,1.8,0.3,1.8,1l-0.5,8c6-5.6,11.7-8.5,16.9-8.5c5.7,0,10.2,1.6,13.4,4.9
	c3.2,3.3,4.8,7.7,4.8,13.3v24.1c0,4.1,0.5,6.8,1.5,8.1c1,1.3,3.3,2.1,6.9,2.6C377,164.4,377.3,164.9,377.3,166z"/>
<path class="st1" d="M262.3,68.6l9.8,26.8h-3.7l-3.5-9.5h-7.1l-3.4,9.5h-3.7l9.8-26.8H262.3z M263.7,82.5l-2.3-6.3l-2.3,6.3H263.7z"
	/>
<path class="st1" d="M280.3,81.2c1.2-1.7,2.7-2.5,4.5-2.6V82c-1.2,0.1-2.2,0.5-2.9,1.2c-1.1,1.1-1.6,2.3-1.7,3.8v8.4H277V79h3.3
	V81.2z"/>
<path class="st1" d="M293.6,79v-6.2h3.3V79h2.9v3.3h-2.9v13.1h-3.3V82.3h-2.9V79H293.6z"/>
<path class="st1" d="M311.6,91.6c0.6,0.5,1.6,0.8,3.1,0.8c1.6,0,3-0.6,4.1-1.7c0.1-0.2,0.4-0.5,0.9-1l3.4,1.2
	c-0.8,1.1-1.4,1.9-1.8,2.3c-1.8,1.8-4,2.7-6.6,2.7c-2.6,0-4.8-0.9-6.6-2.7c-1.8-1.8-2.7-4-2.7-6.6c0-2.6,0.9-4.8,2.7-6.6
	c1.8-1.8,4-2.7,6.6-2.7c2.2,0,4.1,0.7,5.8,2c0.3,0.2,0.5,0.5,0.8,0.7c0.1,0.1,0.4,0.5,0.9,1l-1.7,1.7L311.6,91.6z M317.3,81.1
	c-0.4-0.3-1.2-0.4-2.6-0.4c-1.6,0-3,0.6-4.1,1.7c-1.1,1.1-1.7,2.5-1.7,4.1c0,1.3,0.1,2.2,0.4,2.6L317.3,81.1z"/>
<path class="st1" d="M331.4,92c0.4,0.4,1,0.7,1.6,0.7s1.1-0.2,1.6-0.7c0.4-0.4,0.7-1,0.7-1.6c0-0.6-0.2-1.1-0.7-1.6
	c-0.3-0.3-1-0.8-1.9-1.4c-1.4-0.7-2.3-1.4-2.9-2c-1-1-1.5-2.2-1.5-3.6c0-1.4,0.5-2.6,1.5-3.6c1-1,2.2-1.5,3.6-1.5
	c1.4,0,2.6,0.5,3.5,1.4c0.7,0.7,1.1,1.4,1.3,2.2l-3.7,1.1c-0.1-0.3-0.2-0.5-0.3-0.6c-0.2-0.2-0.5-0.3-0.9-0.3s-0.7,0.1-0.9,0.4
	c-0.3,0.3-0.4,0.6-0.4,0.9c0,0.4,0.1,0.7,0.4,0.9c0.2,0.2,0.8,0.6,1.6,1.1c1.5,0.8,2.6,1.6,3.3,2.3c1.2,1.2,1.8,2.6,1.8,4.2
	c0,1.7-0.6,3.1-1.8,4.3c-1.2,1.2-2.6,1.8-4.3,1.8c-1.7,0-3.1-0.6-4.3-1.8c-0.8-0.8-1.3-1.8-1.6-3l3.7-0.8
	C331,91.3,331.2,91.7,331.4,92z"/>
<path class="st1" d="M371.9,82.4v13h-3.6V77.7h3.6v2.1c0.7-2,2.2-3,4.5-3c1.9,0,3.4,0.7,4.6,2c1.1,1.4,1.7,3.1,1.7,5.1v11.5h-3.6V84
	c0-1-0.4-1.9-1.1-2.6c-0.7-0.7-1.6-1.1-2.7-1.1c-1,0-1.9,0.4-2.7,1.1C372.3,81.8,372,82.1,371.9,82.4z"/>
<path class="st1" d="M391.3,73h4l-4.3,4.4h-3.1L391.3,73z M392,79v16.4h-3.3V79H392z"/>
<path class="st1" d="M412.3,79.8v-1.2h3.5V96h-3.5v-2.2c-1.7,1.7-3.7,2.6-5.9,2.6c-2.7,0-4.9-0.9-6.8-2.8c-1.9-1.9-2.8-4.1-2.8-6.8
	c0-2.7,0.9-4.9,2.8-6.8c1.9-1.9,4.1-2.8,6.8-2.8C408.6,77.2,410.6,78,412.3,79.8z M412.3,88.1v-2.6c-0.2-1.1-0.7-2.1-1.6-3
	c-1.2-1.2-2.6-1.8-4.3-1.8c-1.7,0-3.1,0.6-4.3,1.8c-1.2,1.2-1.8,2.6-1.8,4.3c0,1.7,0.6,3.1,1.8,4.3c1.2,1.2,2.6,1.8,4.3,1.8
	c1.7,0,3.1-0.6,4.3-1.8C411.5,90.1,412,89.2,412.3,88.1z"/>
<g>
	<path class="st2" d="M90.9,178l20.8,0.7c17.2,0,31.6-6.6,43.4-19.7c11.7-13.1,17.6-29.5,17.6-49c0-20.1-5.7-36.8-17.2-50.2
		c-11.5-13.3-25.8-20-43.1-20h-0.7l-20.8,0.4c-8.7,0.3-13.1,4.6-13.1,12.9v112.3C77.8,173.7,82.2,178,90.9,178z"/>
	<path class="st0" d="M173.7,54.2c-15.5-14.4-35.9-21.6-61.1-21.6c-3.2,0-9.8,0.1-19.7,0.3c-6.3,0.1-11.3,0.2-15,0.3V53
		c0-8.3,4.4-12.6,13.1-12.9l20.8-0.4h0.7c17.3,0,31.6,6.7,43.1,20c11.5,13.3,17.2,30.1,17.2,50.2c0,19.6-5.9,35.9-17.6,49
		c-11.7,13.1-26.2,19.7-43.4,19.7L90.9,178c-8.7,0-13.1-4.2-13.1-12.6V185c1.8,0,3.8,0.1,6.2,0.1c2.6,0.1,5.5,0.1,8.8,0.2
		c9.9,0.3,16.5,0.4,19.7,0.4c25.9,0,46.4-7,61.6-20.9c15.2-13.9,22.8-32.3,22.8-55C197,87.2,189.2,68.6,173.7,54.2z"/>
</g>
<g id="XMLID_387_">
	<g id="XMLID_404_">
		<path id="XMLID_406_" class="st0" d="M78.3,110.3c-0.7,11.5-7.5,33.3-28.5,33.3c-6.1,0-11.1-1.9-14.6-5.6c-3-3.1-4.4-7.3-4.2-11.7
			c0.2-3.4,1.7-6.5,4.2-8.7c2.5-2.2,5.8-3.4,9.1-3.2c5.3,0.3,9.4,4.9,9.1,10.2c-0.1,1.8-0.9,3.5-2.1,4.7c-0.1-2.9-2.5-5.3-5.5-5.3
			c-3,0-5.5,2.4-5.5,5.5c0,3,2.4,5.5,5.5,5.5c0.3,0,0.6,0,0.9-0.1c5.3-0.4,9.6-4.6,10-10c0.4-7.2-5.1-13.3-12.3-13.8
			c-4.3-0.2-8.4,1.2-11.5,4c-3.2,2.8-5.1,6.8-5.3,11c-0.3,5.3,1.5,10.4,5.1,14.1c4,4.3,10.1,6.6,17,6.6c23.5,0,31.1-23.8,31.8-36.5
			c0,0,0-0.1,0-0.1c0-0.9-0.7-1.6-1.6-1.7C79.2,108.7,78.4,109.4,78.3,110.3z"/>
		<path id="XMLID_405_" class="st0" d="M78.3,110.5C77.7,99,70.9,77.2,49.9,77.2c-6.1,0-11.1,1.9-14.6,5.6c-3,3.1-4.4,7.3-4.2,11.7
			c0.2,3.4,1.7,6.5,4.2,8.7c2.5,2.2,5.8,3.4,9.1,3.2c5.3-0.3,9.4-4.9,9.1-10.2c-0.1-1.8-0.9-3.5-2.1-4.7c-0.1,2.9-2.5,5.3-5.5,5.3
			c-3,0-5.5-2.4-5.5-5.5c0-3,2.4-5.5,5.5-5.5c0.3,0,0.6,0,0.9,0.1c5.3,0.4,9.6,4.6,10,10c0.4,7.2-5.1,13.3-12.3,13.8
			c-4.3,0.2-8.4-1.2-11.5-4c-3.2-2.8-5.1-6.8-5.3-11c-0.3-5.3,1.5-10.3,5.1-14.1c4-4.3,10.1-6.6,17-6.6c23.5,0,31.1,23.8,31.8,36.5
			c0,0,0,0.1,0,0.1c0,0.9-0.7,1.6-1.6,1.7C79.2,112.1,78.4,111.4,78.3,110.5z"/>
	</g>
	<g id="XMLID_401_">
		<path id="XMLID_403_" class="st0" d="M81.7,110.3c0.7,11.5,7.5,33.3,28.5,33.3c6.1,0,11.1-1.9,14.6-5.6c3-3.1,4.4-7.3,4.2-11.7
			c-0.2-3.4-1.7-6.5-4.2-8.7c-2.5-2.2-5.8-3.4-9.1-3.2c-5.3,0.3-9.4,4.9-9.1,10.2c0.1,1.8,0.9,3.5,2.1,4.7c0.1-2.9,2.5-5.3,5.5-5.3
			c3,0,5.5,2.4,5.5,5.5c0,3-2.4,5.5-5.5,5.5c-0.3,0-0.6,0-0.9-0.1c-5.3-0.4-9.6-4.6-10-10c-0.4-7.2,5.1-13.3,12.3-13.8
			c4.3-0.2,8.4,1.2,11.5,4c3.2,2.8,5.1,6.8,5.3,11c0.3,5.3-1.5,10.4-5.1,14.1c-4,4.3-10.1,6.6-17,6.6c-23.5,0-31.1-23.8-31.8-36.5
			c0,0,0-0.1,0-0.1c0-0.9,0.7-1.6,1.6-1.7C80.8,108.7,81.6,109.4,81.7,110.3z"/>
		<path id="XMLID_402_" class="st0" d="M81.7,110.5c0.7-11.5,7.5-33.3,28.5-33.3c6.1,0,11.1,1.9,14.6,5.6c3,3.1,4.4,7.3,4.2,11.7
			c-0.2,3.4-1.7,6.5-4.2,8.7c-2.5,2.2-5.8,3.4-9.1,3.2c-5.3-0.3-9.4-4.9-9.1-10.2c0.1-1.8,0.9-3.5,2.1-4.7c0.1,2.9,2.5,5.3,5.5,5.3
			c3,0,5.5-2.4,5.5-5.5c0-3-2.4-5.5-5.5-5.5c-0.3,0-0.6,0-0.9,0.1c-5.3,0.4-9.6,4.6-10,10c-0.4,7.2,5.1,13.3,12.3,13.8
			c4.3,0.2,8.4-1.2,11.5-4c3.2-2.8,5.1-6.8,5.3-11c0.3-5.3-1.5-10.3-5.1-14.1c-4-4.3-10.1-6.6-17-6.6c-23.5,0-31.1,23.8-31.8,36.5
			c0,0,0,0.1,0,0.1c0,0.9,0.7,1.6,1.6,1.7C80.8,112.1,81.6,111.4,81.7,110.5z"/>
	</g>
	<path id="XMLID_400_" class="st1" d="M76.1,110.5c0,0-0.4,0.1-1.1,0.5c-0.3,0.2-0.7,0.4-1.1,0.7c-0.4,0.3-0.9,0.7-1.4,1.1
		c-0.5,0.4-0.9,1-1.4,1.5c-0.5,0.6-0.9,1.2-1.3,1.9c-0.4,0.7-0.7,1.5-1,2.2c-0.3,0.8-0.5,1.6-0.8,2.3c-0.2,0.8-0.4,1.6-0.5,2.4
		c0,0.8-0.1,1.6-0.1,2.3c0,0.8-0.1,1.5-0.2,2.1c-0.1,0.7-0.2,1.3-0.3,1.9c-0.1,0.3-0.2,0.6-0.3,0.8c-0.1,0.3-0.2,0.5-0.4,0.8
		c-0.3,0.5-0.6,0.9-0.9,1.2c-0.4,0.4-0.7,0.6-0.9,0.8c-0.3,0.2-0.4,0.3-0.4,0.3h-1.2c0,0-0.1-0.1-0.4-0.3c-0.2-0.2-0.5-0.5-0.9-0.9
		c-0.3-0.4-0.6-0.9-0.8-1.5c-0.1-0.3-0.2-0.6-0.3-0.9c0-0.3-0.1-0.7,0-1c0-0.7,0.1-1.5,0.3-2.3c0.2-0.8,0.5-1.7,0.9-2.5
		c0.4-0.8,0.9-1.7,1.4-2.5c0.5-0.8,1.1-1.6,1.6-2.4c0.6-0.8,1.2-1.5,1.9-2.2c0.7-0.6,1.3-1.3,2-1.8c0.6-0.6,1.3-1.1,1.9-1.5
		c0.3-0.2,0.6-0.4,0.9-0.6c0.3-0.2,0.6-0.4,0.9-0.6c2.3-1.4,4-2,4-2L76.1,110.5z"/>
	<path id="XMLID_399_" class="st1" d="M76.1,110.5c0,0-1.7-0.6-4-2c-0.3-0.2-0.6-0.4-0.9-0.6c-0.3-0.2-0.6-0.4-0.9-0.6
		c-0.6-0.5-1.3-1-1.9-1.5c-0.7-0.5-1.3-1.2-2-1.8c-0.7-0.7-1.3-1.4-1.9-2.2c-0.5-0.8-1.1-1.6-1.6-2.4c-0.5-0.8-1-1.6-1.4-2.5
		c-0.4-0.8-0.7-1.7-0.9-2.5c-0.2-0.8-0.2-1.6-0.3-2.3c0-0.4,0-0.7,0-1c0.1-0.3,0.2-0.6,0.3-0.9c0.2-0.6,0.5-1.1,0.8-1.5
		c0.3-0.4,0.6-0.7,0.9-0.9c0.3-0.2,0.4-0.3,0.4-0.3H64c0,0,0.1,0.1,0.4,0.3c0.3,0.2,0.6,0.5,0.9,0.8c0.3,0.4,0.7,0.8,0.9,1.2
		c0.1,0.2,0.2,0.5,0.4,0.8c0.1,0.3,0.2,0.5,0.3,0.8c0.1,0.6,0.2,1.2,0.3,1.9c0.1,0.6,0.2,1.3,0.2,2.1c0,0.7,0.1,1.5,0.1,2.3
		c0.1,0.8,0.3,1.6,0.5,2.4c0.3,0.8,0.5,1.6,0.8,2.3c0.3,0.8,0.6,1.5,1,2.2c0.4,0.7,0.8,1.3,1.3,1.9c0.5,0.6,0.9,1.1,1.4,1.5
		c0.5,0.4,0.9,0.8,1.4,1.1c0.4,0.3,0.8,0.6,1.1,0.7c0.7,0.4,1.1,0.5,1.1,0.5L76.1,110.5z"/>
	<path id="XMLID_398_" class="st3" d="M60.6,114.6c-2.3,0-4.2-1.9-4.2-4.2c0-2.3,1.9-4.2,4.2-4.2c2.3,0,4.2,1.9,4.2,4.2
		C64.7,112.7,62.9,114.6,60.6,114.6z"/>
	<path id="XMLID_397_" class="st1" d="M82.2,110.5c0,0,0.4,0.1,1.1,0.5c0.3,0.2,0.7,0.4,1.1,0.7c0.4,0.3,0.9,0.7,1.4,1.1
		c0.5,0.4,0.9,1,1.4,1.5c0.5,0.6,0.9,1.2,1.3,1.9c0.4,0.7,0.7,1.5,1,2.2c0.3,0.8,0.5,1.6,0.8,2.3c0.2,0.8,0.4,1.6,0.5,2.4
		c0,0.8,0.1,1.6,0.1,2.3c0,0.8,0.1,1.5,0.2,2.1c0.1,0.7,0.2,1.3,0.3,1.9c0.1,0.3,0.2,0.6,0.3,0.8c0.1,0.3,0.2,0.5,0.4,0.8
		c0.3,0.5,0.6,0.9,0.9,1.2c0.3,0.4,0.7,0.6,0.9,0.8c0.3,0.2,0.4,0.3,0.4,0.3h1.2c0,0,0.1-0.1,0.4-0.3c0.2-0.2,0.5-0.5,0.9-0.9
		c0.3-0.4,0.6-0.9,0.8-1.5c0.1-0.3,0.2-0.6,0.3-0.9c0-0.3,0.1-0.7,0-1c0-0.7-0.1-1.5-0.3-2.3c-0.2-0.8-0.5-1.7-0.9-2.5
		c-0.4-0.8-0.9-1.7-1.4-2.5c-0.5-0.8-1.1-1.6-1.6-2.4c-0.6-0.8-1.2-1.5-1.9-2.2c-0.7-0.6-1.3-1.3-2-1.8c-0.6-0.6-1.3-1.1-1.9-1.5
		c-0.3-0.2-0.6-0.4-0.9-0.6c-0.3-0.2-0.6-0.4-0.9-0.6c-2.3-1.4-4-2-4-2L82.2,110.5z"/>
	<path id="XMLID_396_" class="st1" d="M83.9,110.5c0,0,1.7-0.6,4-2c0.3-0.2,0.6-0.4,0.9-0.6c0.3-0.2,0.6-0.4,0.9-0.6
		c0.6-0.5,1.3-1,1.9-1.5c0.7-0.5,1.3-1.2,2-1.8c0.7-0.7,1.3-1.4,1.9-2.2c0.5-0.8,1.1-1.6,1.6-2.4c0.5-0.8,1-1.6,1.4-2.5
		c0.4-0.8,0.7-1.7,0.9-2.5c0.2-0.8,0.2-1.6,0.3-2.3c0-0.4,0-0.7,0-1c-0.1-0.3-0.2-0.6-0.3-0.9c-0.2-0.6-0.5-1.1-0.8-1.5
		c-0.3-0.4-0.6-0.7-0.9-0.9c-0.3-0.2-0.4-0.3-0.4-0.3h-1.2c0,0-0.1,0.1-0.4,0.3c-0.3,0.2-0.6,0.5-0.9,0.8c-0.3,0.4-0.7,0.8-0.9,1.2
		c-0.1,0.2-0.2,0.5-0.4,0.8c-0.1,0.3-0.2,0.5-0.3,0.8c-0.1,0.6-0.2,1.2-0.3,1.9c-0.1,0.6-0.2,1.3-0.2,2.1c0,0.7-0.1,1.5-0.1,2.3
		c-0.1,0.8-0.3,1.6-0.5,2.4c-0.3,0.8-0.5,1.6-0.8,2.3c-0.3,0.8-0.6,1.5-1,2.2c-0.4,0.7-0.8,1.3-1.3,1.9c-0.5,0.6-0.9,1.1-1.4,1.5
		c-0.5,0.4-0.9,0.8-1.4,1.1c-0.4,0.3-0.8,0.6-1.1,0.7c-0.7,0.4-1.1,0.5-1.1,0.5L83.9,110.5z"/>
	<path id="XMLID_395_" class="st3" d="M99.5,114.6c2.3,0,4.2-1.9,4.2-4.2c0-2.3-1.9-4.2-4.2-4.2c-2.3,0-4.2,1.9-4.2,4.2
		C95.3,112.7,97.2,114.6,99.5,114.6z"/>
	<path id="XMLID_394_" class="st3" d="M80.1,133.6c0,0,0,3.8,0.5,9.5c0.3,2.8,0.6,6.2,1.2,9.7c0.6,3.6,1.4,7.4,1.9,11.2
		c0.2,1.9,0.6,3.8,1,5.7c0.4,1.9,0.8,3.7,1.1,5.5c0.6,3.6,0.7,6.9,0.4,9.7c-0.2,2.8-1.4,5.2-2.6,6.9c-0.6,0.8-1.2,1.5-1.7,1.9
		c-0.5,0.4-0.8,0.7-0.8,0.7c-0.7,0.4-1.5,0.4-2.3,0c0,0-0.3-0.2-0.8-0.7c-0.4-0.4-1.1-1.1-1.7-1.9c-1.2-1.7-2.4-4-2.6-6.9
		c-0.2-2.8-0.2-6.2,0.4-9.7c0.3-1.8,0.7-3.6,1.1-5.5c0.4-1.9,0.7-3.8,1-5.7c0.5-3.8,1.3-7.6,1.9-11.2c0.6-3.6,0.9-6.9,1.2-9.7
		c0.5-5.7,0.5-9.5,0.5-9.5H80.1z"/>
	<path id="XMLID_393_" class="st4" d="M73.8,146.5c0,0,0,0.2-0.1,0.4c-0.1,0.3-0.2,0.7-0.3,1.2c-0.1,0.5-0.3,1.2-0.5,1.9
		c-0.2,0.7-0.5,1.6-0.8,2.5c-0.3,0.9-0.7,1.9-1.1,2.9c-0.4,1-0.9,2.1-1.4,3.3c-0.5,1.1-1,2.4-1.7,3.5c-0.3,0.6-0.7,1.2-1,1.8
		c-0.4,0.6-0.8,1.1-1.2,1.7c-0.8,1.1-1.7,2.2-2.6,3.3l-0.7,0.8l-0.7,0.7c-0.5,0.5-1,1-1.5,1.4c-0.5,0.5-1,0.9-1.6,1.2
		c-0.6,0.3-1.1,0.7-1.7,1c-1.1,0.6-2.2,0.9-3.3,1.2c-1.1,0.2-2,0.4-3,0.1c-0.9-0.2-1.7-0.5-2.4-0.8c-0.7-0.4-1.2-0.7-1.6-1
		c-0.4-0.3-0.6-0.5-0.6-0.5c-0.3-0.6-0.4-1.2-0.3-1.8c0,0,0.1-0.3,0.3-0.7c0.2-0.4,0.5-1,0.9-1.6c0.4-0.6,0.9-1.2,1.4-1.7
		c0.6-0.5,1.2-1.1,1.9-1.4c0.7-0.4,1.5-0.6,2.4-1c0.4-0.2,0.9-0.3,1.3-0.5c0.5-0.1,1-0.3,1.4-0.4c0.5-0.2,1-0.3,1.5-0.5l0.8-0.2
		l0.8-0.3c1-0.4,2.1-0.9,3.1-1.5l1.5-0.9c0.5-0.3,0.9-0.7,1.4-1c1-0.6,1.8-1.5,2.7-2.2c0.8-0.8,1.6-1.6,2.2-2.5
		c0.3-0.4,0.6-0.8,0.9-1.2c0.3-0.4,0.5-0.8,0.8-1.2c0.5-0.8,0.9-1.6,1.2-2.2c0.3-0.7,0.6-1.3,0.8-1.8c0.4-1,0.5-1.6,0.5-1.6
		L73.8,146.5z"/>
	<path id="XMLID_392_" class="st4" d="M86.5,146.5c0,0,0.1,0.6,0.5,1.6c0.2,0.5,0.5,1.1,0.8,1.8c0.4,0.7,0.7,1.4,1.2,2.2
		c0.3,0.4,0.5,0.8,0.8,1.2c0.3,0.4,0.6,0.8,0.9,1.2c0.6,0.9,1.4,1.7,2.2,2.5c0.9,0.7,1.7,1.6,2.7,2.2c0.5,0.3,1,0.7,1.4,1l1.5,0.9
		c0.9,0.7,2,1.1,3.1,1.5l0.8,0.3l0.8,0.2c0.5,0.2,1,0.3,1.5,0.5c0.5,0.2,1,0.3,1.4,0.4c0.5,0.1,0.9,0.3,1.3,0.5
		c0.8,0.4,1.6,0.7,2.4,1c0.7,0.3,1.3,0.9,1.9,1.4c0.6,0.5,1,1.1,1.4,1.7c0.4,0.6,0.7,1.2,0.9,1.6c0.2,0.5,0.3,0.7,0.3,0.7
		c0.1,0.6,0,1.2-0.3,1.8c0,0-0.2,0.2-0.6,0.5c-0.4,0.3-0.9,0.7-1.6,1c-0.7,0.3-1.5,0.7-2.4,0.8c-0.9,0.2-1.9,0.1-3-0.1
		c-1-0.3-2.2-0.6-3.3-1.2c-0.6-0.3-1.1-0.6-1.7-1c-0.6-0.3-1.1-0.7-1.6-1.2c-0.5-0.5-1-0.9-1.5-1.4l-0.7-0.7L97,169
		c-0.9-1.1-1.8-2.1-2.6-3.3c-0.4-0.6-0.8-1.1-1.2-1.7c-0.4-0.6-0.7-1.2-1-1.8c-0.7-1.1-1.2-2.4-1.7-3.5c-0.5-1.2-1-2.2-1.4-3.3
		c-0.4-1-0.8-2-1.1-2.9c-0.3-0.9-0.5-1.7-0.8-2.5c-0.2-0.7-0.4-1.4-0.5-1.9c-0.1-0.5-0.2-1-0.3-1.2c-0.1-0.3-0.1-0.4-0.1-0.4
		L86.5,146.5z"/>
	<path id="XMLID_391_" class="st3" d="M80.1,87.2c0,0,0-3.9,0.6-9.9c0.3-3,0.6-6.4,1.2-10.1c0.6-3.7,1.4-7.6,2-11.6
		c0.3-2,0.6-3.9,1-5.9c0.4-1.9,0.8-3.9,1.1-5.7c0.7-3.7,0.7-7.2,0.4-10.1c-0.3-3-1.5-5.4-2.7-7.2c-0.6-0.9-1.3-1.5-1.7-2
		c-0.5-0.5-0.8-0.7-0.8-0.7c-0.8-0.5-1.6-0.6-2.4,0c0,0-0.3,0.2-0.8,0.7c-0.5,0.5-1.1,1.1-1.7,2c-1.2,1.7-2.4,4.2-2.7,7.2
		c-0.3,3-0.2,6.4,0.4,10.1c0.3,1.9,0.7,3.8,1.1,5.7c0.4,1.9,0.8,3.9,1,5.9c0.5,3.9,1.4,7.9,2,11.6c0.6,3.7,0.9,7.2,1.2,10.1
		c0.5,5.9,0.6,9.9,0.6,9.9H80.1z"/>
	<path id="XMLID_389_" class="st4" d="M73.5,77.5c0,0,0-0.2-0.1-0.5c-0.1-0.3-0.2-0.7-0.3-1.3c-0.1-0.6-0.3-1.2-0.5-2
		c-0.2-0.8-0.5-1.6-0.8-2.6c-0.3-1-0.7-2-1.1-3c-0.4-1.1-0.9-2.2-1.4-3.4c-0.6-1.2-1.1-2.4-1.8-3.6c-0.3-0.6-0.7-1.2-1.1-1.8
		c-0.4-0.6-0.8-1.1-1.3-1.7c-0.8-1.2-1.8-2.3-2.8-3.4l-0.7-0.9l-0.8-0.8c-0.5-0.5-1-1-1.6-1.5c-0.5-0.5-1.1-0.9-1.7-1.3
		c-0.6-0.4-1.1-0.7-1.7-1c-1.1-0.6-2.3-0.9-3.4-1.2c-1.1-0.2-2.1-0.4-3.1-0.2c-1,0.2-1.8,0.5-2.5,0.9c-0.7,0.4-1.3,0.8-1.6,1.1
		c-0.4,0.3-0.6,0.5-0.6,0.5c-0.3,0.5-0.4,1.1-0.3,1.9c0,0,0.1,0.3,0.3,0.7c0.2,0.4,0.5,1,0.9,1.7c0.4,0.6,0.9,1.2,1.5,1.8
		c0.6,0.5,1.2,1.1,2,1.5c0.8,0.4,1.6,0.7,2.5,1.1c0.4,0.2,0.9,0.3,1.4,0.5c0.5,0.1,1,0.3,1.5,0.5c0.5,0.2,1,0.3,1.6,0.5l0.8,0.2
		l0.8,0.3c1.1,0.5,2.2,0.9,3.2,1.6l1.5,1c0.5,0.4,1,0.7,1.5,1.1c1,0.7,1.9,1.5,2.8,2.3c0.8,0.9,1.6,1.7,2.3,2.6
		c0.3,0.4,0.6,0.9,1,1.3c0.3,0.4,0.5,0.9,0.8,1.3c0.5,0.8,0.9,1.6,1.3,2.3c0.3,0.7,0.6,1.3,0.8,1.9c0.4,1.1,0.5,1.7,0.5,1.7
		L73.5,77.5z"/>
	<path id="XMLID_388_" class="st4" d="M86.7,77.6c0,0,0.1-0.6,0.5-1.7c0.2-0.5,0.5-1.2,0.8-1.9c0.4-0.7,0.7-1.5,1.3-2.3
		c0.3-0.4,0.5-0.8,0.8-1.3c0.3-0.4,0.6-0.8,1-1.3c0.6-0.9,1.5-1.7,2.3-2.6c0.9-0.8,1.8-1.6,2.8-2.3c0.5-0.4,1-0.7,1.5-1.1l1.5-1
		c1-0.7,2.1-1.1,3.2-1.6l0.8-0.3l0.8-0.2c0.5-0.2,1.1-0.3,1.6-0.5c0.5-0.2,1-0.3,1.5-0.5c0.5-0.1,0.9-0.3,1.4-0.5
		c0.8-0.4,1.7-0.7,2.5-1.1c0.8-0.3,1.4-1,2-1.5c0.6-0.5,1.1-1.2,1.5-1.8c0.4-0.6,0.7-1.2,0.9-1.7c0.2-0.5,0.3-0.7,0.3-0.7
		c0.1-0.7,0-1.4-0.3-1.9c0,0-0.2-0.2-0.6-0.5c-0.4-0.3-0.9-0.7-1.6-1.1c-0.7-0.4-1.6-0.7-2.5-0.9c-1-0.2-2-0.1-3.1,0.2
		c-1.1,0.3-2.3,0.6-3.4,1.2c-0.6,0.3-1.1,0.6-1.7,1c-0.6,0.4-1.1,0.8-1.7,1.3c-0.5,0.5-1,1-1.6,1.5l-0.8,0.8l-0.7,0.9
		c-0.9,1.1-1.9,2.2-2.8,3.4c-0.4,0.6-0.9,1.1-1.3,1.7c-0.4,0.6-0.7,1.2-1.1,1.8c-0.7,1.2-1.2,2.5-1.8,3.6c-0.5,1.2-1,2.3-1.4,3.4
		c-0.4,1.1-0.8,2.1-1.1,3c-0.3,0.9-0.6,1.8-0.8,2.6c-0.2,0.8-0.4,1.4-0.5,2c-0.1,0.6-0.2,1-0.3,1.3c-0.1,0.3-0.1,0.5-0.1,0.5
		L86.7,77.6z"/>
</g>
<path class="st1" d="M423.5,92c0.4,0.4,1,0.7,1.6,0.7c0.6,0,1.1-0.2,1.6-0.7c0.4-0.4,0.7-1,0.7-1.6c0-0.6-0.2-1.1-0.7-1.6
	c-0.3-0.3-1-0.8-1.9-1.4c-1.4-0.7-2.3-1.4-2.9-2c-1-1-1.5-2.2-1.5-3.6c0-1.4,0.5-2.6,1.5-3.6c1-1,2.2-1.5,3.6-1.5
	c1.4,0,2.6,0.5,3.5,1.4c0.7,0.7,1.1,1.4,1.3,2.2l-3.7,1.1c-0.1-0.3-0.2-0.5-0.3-0.6c-0.2-0.2-0.5-0.3-0.9-0.3s-0.7,0.1-0.9,0.4
	c-0.3,0.3-0.4,0.6-0.4,0.9c0,0.4,0.1,0.7,0.4,0.9c0.2,0.2,0.8,0.6,1.6,1.1c1.5,0.8,2.6,1.6,3.3,2.3c1.2,1.2,1.8,2.6,1.8,4.2
	c0,1.7-0.6,3.1-1.8,4.3c-1.2,1.2-2.6,1.8-4.3,1.8c-1.7,0-3.1-0.6-4.3-1.8c-0.8-0.8-1.3-1.8-1.6-3l3.7-0.8
	C423.1,91.3,423.2,91.7,423.5,92z"/>
<path class="st1" d="M358.6,79.8v-1.2h3.5V96h-3.5v-2.2c-1.7,1.7-3.7,2.6-5.9,2.6c-2.7,0-4.9-0.9-6.8-2.8c-1.9-1.9-2.8-4.1-2.8-6.8
	c0-2.7,0.9-4.9,2.8-6.8c1.9-1.9,4.1-2.8,6.8-2.8C355,77.2,356.9,78,358.6,79.8z M358.6,88.1v-2.6c-0.2-1.1-0.7-2.1-1.6-3
	c-1.2-1.2-2.6-1.8-4.3-1.8c-1.7,0-3.1,0.6-4.3,1.8c-1.2,1.2-1.8,2.6-1.8,4.3c0,1.7,0.6,3.1,1.8,4.3c1.2,1.2,2.6,1.8,4.3,1.8
	c1.7,0,3.1-0.6,4.3-1.8C357.9,90.1,358.4,89.2,358.6,88.1z"/>
</svg>
